<svg xmlns="http://www.w3.org/2000/svg" viewBox="0 0 293.92 75"><defs><style>.cls-1{fill:#e20613;}.cls-2{fill:#fff;fill-rule:evenodd;}</style></defs><g id="Layer_2" data-name="Layer 2"><g id="Layer_2-2" data-name="Layer 2"><rect class="cls-1" width="293.92" height="75"/><path class="cls-2" d="M0,10.93H15.79v2H0ZM0,23.52H15.79v2H0ZM0,36.45H15.79v2H0ZM0,49.56H15.79v2H0ZM0,62.2H15.79v2H0Z"/><path class="cls-2" d="M278.13,10.93h15.78v2H278.13Zm0,12.59h15.78v2H278.13Zm0,12.93h15.78v2H278.13Zm0,13.11h15.78v2H278.13Zm0,12.64h15.78v2H278.13Z"/><path class="cls-2" d="M261.19,64.18h0L272.56,10.7H257.75L246.38,64.18ZM207,43.37h14.29l-2.08-22.22h-.22ZM195.27,64.18H180.46L212.94,10.7H231l9.74,53.48H224l-1.33-10.44H201Zm-72.44,0h13.33l8.7-41H145l9.45,41H175L186.34,10.7H173l-8.44,39.7-.18.15L154.94,10.7H134.2Zm-8.37,0H73.72L85.09,10.7h40.74l-2.21,10.37H97.69l-2.34,11H119.2L117,42.48H93.15L90.74,53.81h25.93ZM71.61,26.41C75.22,13.52,64.73,9.59,53.69,9.59s-23,3.48-26.32,16.15c-1.22,5.78.4,10.66,5.3,13C43.21,43.89,54.51,42.33,53,49.59c-.75,3.55-5.49,5.33-8.91,5.33-5.33,0-8.44-2.74-7.31-7.77H21.93C19.06,61.66,29.26,65.3,41.71,65.3s24.61-5.34,27-16.6c3.06-14.44-9.78-15.33-18.26-17.63-3.7-1-8.17-2.29-7.35-6.22.57-2.67,4-4.89,7.41-4.89,2.52,0,4.32.59,5.35,1.7s1.43,2.67.92,4.75Z"/></g></g></svg>
